<?xml version="1.0" standalone="no"?><!DOCTYPE svg PUBLIC "-//W3C//DTD SVG 1.1//EN" "http://www.w3.org/Graphics/SVG/1.1/DTD/svg11.dtd"><svg xmlns="http://www.w3.org/2000/svg" version="1.1" width="1000.737" height="453.833" xmlns:xlink="http://www.w3.org/1999/xlink" xlink="http://www.w3.org/1999/xlink" style="position:relative;overflow:hidden;" viewBox="-12 -12 1000.737 453.833"><defs/><g><g width="145.833" height="153.833" transform="scale(1,1) translate(618.75,6.417)"><g stroke="#6E6E6E" opacity="1" stroke-width="1" stroke-dasharray="none" width="145.833" height="153.833" transform="scale(1,1) translate(0,0)" fill="none" stroke-opacity="1"><rect width="145.833" height="153.833"/></g><g transform="scale(1,1) translate(0,0)" fill="#E8E8E8" opacity="0.01" stroke="#E8E8E8"><path d="M0.5,0.5 L146.167,0.5 L146.167,25.125 L0.5,25.125 z M0.5,25.125 L146.167,25.125 L146.167,77.625 L0.5,77.625 z M0.5,77.625 L146.167,77.625 L146.167,153.333 L0.5,153.333 z" stroke-width="0" stroke-dasharray="none"/></g><g width="137.66666666666666" height="15.624999046325684" transform="scale(1,1) translate(4.5,4.5)"><text width="137.66666666666666" height="15.624999046325684" transform="scale(1,1) translate(0,0)" xml:space="preserve"><tspan xml:space="preserve" text-rendering="optimizeSpeed" font-size="12.5" font-weight="normal" font-style="normal" fill="#000000" opacity="1" x="11.091" text-anchor="start" y="12.5" textLength="115.484619140625" style="font-family: Verdana, Geneva, sans-serif;">View Shopping list</tspan></text></g><g width="137.66666666666666" height="43.5" transform="scale(1,1) translate(4.5,29.125)"><text width="137.66666666666666" height="27.083332061767578" transform="scale(1,1) translate(0,0)" xml:space="preserve"><tspan xml:space="preserve" text-rendering="optimizeSpeed" font-size="11.11111111111111" font-weight="normal" font-style="normal" fill="#000000" opacity="1" x="0" text-anchor="start" y="11.458" textLength="98.44207763671875" style="font-family: Verdana, Geneva, sans-serif;">attribute: = view</tspan><tspan xml:space="preserve" text-rendering="optimizeSpeed" font-size="11.11111111111111" font-weight="normal" font-style="normal" fill="#000000" opacity="1" x="0" text-anchor="start" y="25" textLength="72.78953552246094" style="font-family: Verdana, Geneva, sans-serif;">shopping list</tspan></text></g><g width="137.66666666666666" height="67.70833015441895" transform="scale(1,1) translate(4.5,81.625)"><text width="137.66666666666666" height="67.70833015441895" transform="scale(1,1) translate(0,0)" xml:space="preserve"><tspan xml:space="preserve" text-rendering="optimizeSpeed" font-size="11.11111111111111" font-weight="normal" font-style="normal" fill="#000000" opacity="1" x="0" text-anchor="start" y="11.458" textLength="68.97379302978516" style="font-family: Verdana, Geneva, sans-serif;">edit_item ()</tspan><tspan xml:space="preserve" text-rendering="optimizeSpeed" font-size="11.11111111111111" font-weight="normal" font-style="normal" fill="#000000" opacity="1" x="0" text-anchor="start" y="25" textLength="69.59512329101562" style="font-family: Verdana, Geneva, sans-serif;">save_item()</tspan><tspan xml:space="preserve" text-rendering="optimizeSpeed" font-size="11.11111111111111" font-weight="normal" font-style="normal" fill="#000000" opacity="1" x="0" text-anchor="start" y="38.542" textLength="78.59700012207031" style="font-family: Verdana, Geneva, sans-serif;">delete_item()</tspan><tspan xml:space="preserve" text-rendering="optimizeSpeed" font-size="11.11111111111111" font-weight="normal" font-style="normal" fill="#000000" opacity="1" x="0" text-anchor="start" y="65.625" textLength="114.874267578125" style="font-family: Verdana, Geneva, sans-serif;">add_shopping List()</tspan></text></g><g transform="scale(1,1) translate(0,0)" fill="#6E6E6E" stroke="#6E6E6E" stroke-opacity="1"><path d="M0.5,24.625 L146.167,24.625" fill="none" stroke-width="1" stroke-dasharray="none"/><g><g stroke-dasharray="none"><path d="M-0.5,23.625L1.5,23.625L1.5,25.625L-0.5,25.625z" stroke-width="0" fill="none"/></g></g></g><g transform="scale(1,1) translate(0,0)" fill="#6E6E6E" stroke="#6E6E6E" stroke-opacity="1"><path d="M0.5,77.125 L146.167,77.125" fill="none" stroke-width="1" stroke-dasharray="none"/><g><g stroke-dasharray="none"><path d="M-0.5,76.125L1.5,76.125L1.5,78.125L-0.5,78.125z" stroke-width="0" fill="none"/></g></g></g><g stroke="white" fill="none" stroke-opacity="0" stroke-width="3" stroke-dasharray="none" width="3" height="152.833" transform="scale(1,1) translate(3.5,0.5)"><rect width="3" height="152.833"/></g><g stroke="white" fill="none" stroke-opacity="0" stroke-width="3" stroke-dasharray="none" width="144.833" height="3" transform="scale(1,1) translate(0.5,3.5)"><rect width="144.833" height="3"/></g></g><g width="60" height="76.833" transform="scale(1,1) translate(220,78.25)"><g width="60" height="76.833"><g transform="scale(1.014079123966193,1.0087616313764338) translate(0,0)"><g><g width="58.167" height="74.833" transform="scale(1,1) translate(0.5,0.5)"><g transform="scale(1,1) translate(0,0)" stroke="#000000" fill="#FFFFFF" fill-opacity="1" stroke-opacity="1"><path d="M50.333,0 L0,0 L0,74.833 L58.167,74.833 L58.167,8.333 L50.333,0 z" stroke-width="1" stroke-dasharray="none"/></g></g><g width="7.667" height="8.5" transform="scale(1,1) translate(50.5,1.167)"><g transform="scale(1,1) translate(0,0)" fill="#000000" stroke="#000000" stroke-opacity="1"><path d="M0,0 L0,8.5 L7.667,8.5" fill="none" stroke-width="1" stroke-dasharray="none"/><g><g stroke-dasharray="none"><path d="M-1,-1L1,-1L1,1L-1,1z" stroke-width="0" fill="none"/></g></g></g></g><g width="42" height="0" transform="scale(1,1) translate(8.5,45.833)"><g transform="scale(1,1) translate(0,0)" fill="#6E6E6E" stroke="#6E6E6E" stroke-opacity="1"><path d="M0,0 L42,0" fill="none" stroke-width="1" stroke-dasharray="none"/><g><g stroke-dasharray="none"><path d="M-1,-1L1,-1L1,1L-1,1z" stroke-width="0" fill="none"/></g></g></g></g><g width="42" height="0" transform="scale(1,1) translate(8.5,52.333)"><g transform="scale(1,1) translate(0,0)" fill="#6E6E6E" stroke="#6E6E6E" stroke-opacity="1"><path d="M0,0 L42,0" fill="none" stroke-width="1" stroke-dasharray="none"/><g><g stroke-dasharray="none"><path d="M-1,-1L1,-1L1,1L-1,1z" stroke-width="0" fill="none"/></g></g></g></g><g width="42" height="0" transform="scale(1,1) translate(8.5,58.833)"><g transform="scale(1,1) translate(0,0)" fill="#6E6E6E" stroke="#6E6E6E" stroke-opacity="1"><path d="M0,0 L42,0" fill="none" stroke-width="1" stroke-dasharray="none"/><g><g stroke-dasharray="none"><path d="M-1,-1L1,-1L1,1L-1,1z" stroke-width="0" fill="none"/></g></g></g></g><g width="19.333" height="0" transform="scale(1,1) translate(8.5,65.667)"><g transform="scale(1,1) translate(0,0)" fill="#6E6E6E" stroke="#6E6E6E" stroke-opacity="1"><path d="M0,0 L19.333,0" fill="none" stroke-width="1" stroke-dasharray="none"/><g><g stroke-dasharray="none"><path d="M-1,-1L1,-1L1,1L-1,1z" stroke-width="0" fill="none"/></g></g></g></g><g width="26.167" height="26.167" transform="scale(1,1) translate(16.5,11.833)"><g width="26.167" height="26.167" transform="scale(1,1) translate(0,0)" stroke="#DBDBDB" stroke-width="1" stroke-dasharray="none" fill="#DBDBDB" fill-opacity="1" stroke-opacity="1"><ellipse rx="13.0835" ry="13.0835" cx="13.0835" cy="13.0835"/></g></g></g></g></g><g width="67.02067565917969" height="15.624999046325684" transform="scale(1,1) translate(-3.51,-15.625)"><text width="67.02067565917969" height="15.624999046325684" transform="scale(1,1) translate(0,0)" xml:space="preserve"><tspan xml:space="preserve" text-rendering="optimizeSpeed" font-size="13.88888888888889" font-weight="normal" font-style="normal" fill="#000000" opacity="1" x="0" text-anchor="start" y="12.5" textLength="67.02067565917969" style="font-family: Arial, Helvetica Neue, Helvetica, sans-serif;">Login page</tspan></text></g></g><g width="145.667" height="138.333" transform="scale(1,1) translate(2.167,64.167)"><g stroke="#6E6E6E" opacity="1" stroke-width="1" stroke-dasharray="none" width="145.667" height="138.333" transform="scale(1,1) translate(0,0)" fill="none" stroke-opacity="1"><rect width="145.667" height="138.333"/></g><g transform="scale(1,1) translate(0,0)" fill="#E8E8E8" opacity="0.01" stroke="#E8E8E8"><path d="M0.5,0.5 L146.167,0.5 L146.167,44.5 L0.5,44.5 z M0.5,44.5 L146.167,44.5 L146.167,82.833 L0.5,82.833 z M0.5,82.833 L146.167,82.833 L146.167,137.833 L0.5,137.833 z" stroke-width="0" stroke-dasharray="none"/></g><g width="141.66666666666666" height="39" transform="scale(1,1) translate(2.5,2.5)"><text width="141.66666666666666" height="33.33333206176758" transform="scale(1,1) translate(0,2.833333969116211)" xml:space="preserve"><tspan xml:space="preserve" text-rendering="optimizeSpeed" font-size="13.88888888888889" font-weight="normal" font-style="normal" fill="#000000" opacity="1" x="18.928" text-anchor="start" y="13.542" textLength="103.81060791015625" style="font-family: Verdana, Geneva, sans-serif;">&lt;&lt;interface&gt;&gt;</tspan><tspan xml:space="preserve" text-rendering="optimizeSpeed" font-size="13.88888888888889" font-weight="normal" font-style="normal" fill="#000000" opacity="1" x="46.514" text-anchor="start" y="30.208" textLength="48.638916015625" style="font-family: Verdana, Geneva, sans-serif;">browse</tspan></text></g><g width="141.66666666666666" height="33.33333206176758" transform="scale(1,1) translate(2.5,46.5)"><text width="141.66666666666666" height="33.33333206176758" transform="scale(1,1) translate(0,0)" xml:space="preserve"><tspan xml:space="preserve" text-rendering="optimizeSpeed" font-size="13.88888888888889" font-weight="normal" font-style="normal" fill="#000000" opacity="1" x="0" text-anchor="start" y="13.542" textLength="137.98208618164062" style="font-family: Verdana, Geneva, sans-serif;">https://dlelo.github.</tspan><tspan xml:space="preserve" text-rendering="optimizeSpeed" font-size="13.88888888888889" font-weight="normal" font-style="normal" fill="#000000" opacity="1" x="0" text-anchor="start" y="30.208" textLength="120.3970947265625" style="font-family: Verdana, Geneva, sans-serif;">io/myshoppinglist</tspan></text></g><g width="141.66666666666666" height="51" transform="scale(1,1) translate(2.5,84.833)"><text width="141.66666666666666" height="33.33333206176758" transform="scale(1,1) translate(0,0)" xml:space="preserve"><tspan xml:space="preserve" text-rendering="optimizeSpeed" font-size="13.88888888888889" font-weight="normal" font-style="normal" fill="#000000" opacity="1" x="0" text-anchor="start" y="13.542" textLength="139.15309143066406" style="font-family: Verdana, Geneva, sans-serif;">operations()- search</tspan><tspan xml:space="preserve" text-rendering="optimizeSpeed" font-size="13.88888888888889" font-weight="normal" font-style="normal" fill="#000000" opacity="1" x="0" text-anchor="start" y="30.208" textLength="122.86891174316406" style="font-family: Verdana, Geneva, sans-serif;">in the address bar</tspan></text></g><g transform="scale(1,1) translate(0,0)" fill="#6E6E6E" stroke="#6E6E6E" stroke-opacity="1"><path d="M0.5,44 L146.167,44" fill="none" stroke-width="1" stroke-dasharray="none"/><g><g stroke-dasharray="none"><path d="M-0.5,43L1.5,43L1.5,45L-0.5,45z" stroke-width="0" fill="none"/></g></g></g><g transform="scale(1,1) translate(0,0)" fill="#6E6E6E" stroke="#6E6E6E" stroke-opacity="1"><path d="M0.5,82.333 L146.167,82.333" fill="none" stroke-width="1" stroke-dasharray="none"/><g><g stroke-dasharray="none"><path d="M-0.5,81.333L1.5,81.333L1.5,83.333L-0.5,83.333z" stroke-width="0" fill="none"/></g></g></g><g stroke="white" fill="none" stroke-opacity="0" stroke-width="3" stroke-dasharray="none" width="3" height="137.333" transform="scale(1,1) translate(3.5,0.5)"><rect width="3" height="137.333"/></g><g stroke="white" fill="none" stroke-opacity="0" stroke-width="3" stroke-dasharray="none" width="144.667" height="3" transform="scale(1,1) translate(0.5,3.5)"><rect width="144.667" height="3"/></g></g><g width="66.667" height="0" transform="scale(1,1) translate(150,125)"><g transform="scale(1,1) translate(0,0)" fill="#000000" stroke="#000000" stroke-opacity="1"><path d="M 6 0 L 66.667 0" fill="none" stroke-width="2" stroke-dasharray="none"/><g><g stroke-dasharray="none"><path d="M6,0.5A6,6 180 1 1 6,-0.5z" stroke-width="1" fill="none"/></g><g stroke-dasharray="none"><path d="M54.667,-6L66.667,0L54.667,6" stroke-width="1" fill="none"/></g></g></g></g><g width="183.841" height="122.276" transform="rotate(270,308.597,116.73) scale(1,1) translate(216.677,55.592)"><g width="183.841" height="122.276"><g transform="scale(3.1071527756604955,3.2319871844521555) translate(0,0)"><g><g width="0" height="17.833" transform="scale(1,1) translate(56.667,18.5)"><g transform="scale(1,1) translate(0,0)" fill="#000000" stroke="#000000" stroke-opacity="1"><path d="M0,0 L0,17.833" fill="none" stroke-width="1" stroke-dasharray="none"/><g><g stroke-dasharray="none"><path d="M-1,-1L1,-1L1,1L-1,1z" stroke-width="0" fill="none"/></g></g></g></g><g width="55.833" height="0" transform="scale(1,1) translate(0.5,19)"><g transform="scale(1,1) translate(0,0)" fill="#000000" stroke="#000000" stroke-opacity="1"><path d="M0,0 L55.833,0" fill="none" stroke-width="1" stroke-dasharray="none"/><g><g stroke-dasharray="none"><path d="M-1,-1L1,-1L1,1L-1,1z" stroke-width="0" fill="none"/></g></g></g></g><g width="0" height="17.833" transform="scale(1,1) translate(0.833,18.5)"><g transform="scale(1,1) translate(0,0)" fill="#000000" stroke="#000000" stroke-opacity="1"><path d="M0,0 L0,17.833" fill="none" stroke-width="1" stroke-dasharray="none"/><g><g stroke-dasharray="none"><path d="M-1,-1L1,-1L1,1L-1,1z" stroke-width="0" fill="none"/></g></g></g></g><g width="0" height="35.833" transform="scale(1,1) translate(28.5,0.5)"><g transform="scale(1,1) translate(0,0)" fill="#000000" stroke="#000000" stroke-opacity="1"><path d="M0,0 L0,35.833" fill="none" stroke-width="1" stroke-dasharray="none"/><g><g stroke-dasharray="none"><path d="M-1,-1L1,-1L1,1L-1,1z" stroke-width="0" fill="none"/></g></g></g></g></g></g></g></g><g width="98.667" height="50" transform="scale(1,1) translate(386.083,-8.333)"><g transform="scale(1,1) translate(0,0)" stroke="#7F7F7F" fill="#FFFFFF" fill-opacity="1" stroke-opacity="1"><path d="M25,0 L19.375,0.641 L17.097,1.282 L15.385,1.923 L13.971,2.564 L12.753,3.205 L11.677,3.846 L10.709,4.487 L9.831,5.128 L9.026,5.769 L8.284,6.41 L7.598,7.051 L6.96,7.692 L6.366,8.333 L5.812,8.974 L5.294,9.615 L4.81,10.256 L4.357,10.897 L3.934,11.538 L3.538,12.179 L3.167,12.821 L2.822,13.462 L2.5,14.103 L2.201,14.744 L1.923,15.385 L1.666,16.026 L1.43,16.667 L1.213,17.308 L1.015,17.949 L0.836,18.59 L0.675,19.231 L0.532,19.872 L0.406,20.513 L0.298,21.154 L0.206,21.795 L0.132,22.436 L0.074,23.077 L0.033,23.718 L0.008,24.359 L0,25 L0,25 L0.008,25.641 L0.033,26.282 L0.074,26.923 L0.132,27.564 L0.206,28.205 L0.298,28.846 L0.406,29.487 L0.532,30.128 L0.675,30.769 L0.836,31.41 L1.015,32.051 L1.213,32.692 L1.43,33.333 L1.666,33.974 L1.923,34.615 L2.201,35.256 L2.5,35.897 L2.822,36.538 L3.167,37.179 L3.538,37.821 L3.934,38.462 L4.357,39.103 L4.81,39.744 L5.294,40.385 L5.812,41.026 L6.366,41.667 L6.96,42.308 L7.598,42.949 L8.284,43.59 L9.026,44.231 L9.831,44.872 L10.709,45.513 L11.677,46.154 L12.753,46.795 L13.971,47.436 L15.385,48.077 L17.097,48.718 L19.375,49.359 L25,50 L73.667,50 L79.292,49.359 L81.57,48.718 L83.282,48.077 L84.695,47.436 L85.913,46.795 L86.99,46.154 L87.957,45.513 L88.836,44.872 L89.641,44.231 L90.383,43.59 L91.069,42.949 L91.707,42.308 L92.301,41.667 L92.855,41.026 L93.372,40.385 L93.856,39.744 L94.309,39.103 L94.733,38.462 L95.129,37.821 L95.499,37.179 L95.845,36.538 L96.167,35.897 L96.466,35.256 L96.744,34.615 L97,33.974 L97.237,33.333 L97.454,32.692 L97.652,32.051 L97.831,31.41 L97.992,30.769 L98.135,30.128 L98.261,29.487 L98.369,28.846 L98.46,28.205 L98.535,27.564 L98.593,26.923 L98.634,26.282 L98.658,25.641 L98.667,25 L98.667,25 L98.658,24.359 L98.634,23.718 L98.593,23.077 L98.535,22.436 L98.46,21.795 L98.369,21.154 L98.261,20.513 L98.135,19.872 L97.992,19.231 L97.831,18.59 L97.652,17.949 L97.454,17.308 L97.237,16.667 L97,16.026 L96.744,15.385 L96.466,14.744 L96.167,14.103 L95.845,13.462 L95.499,12.821 L95.129,12.179 L94.733,11.538 L94.309,10.897 L93.856,10.256 L93.372,9.615 L92.855,8.974 L92.301,8.333 L91.707,7.692 L91.069,7.051 L90.383,6.41 L89.641,5.769 L88.836,5.128 L87.957,4.487 L86.99,3.846 L85.913,3.205 L84.695,2.564 L83.282,1.923 L81.57,1.282 L79.292,0.641 L73.667,0 L25,0 z" stroke-width="1" stroke-dasharray="none"/></g><g width="65.06076237533333" height="30.648232317999998" transform="scale(1,1) translate(16.803,9.676)"><text width="65.06076237533333" height="16.66666603088379" transform="scale(1,1) translate(0,6.9907831435581045)" xml:space="preserve"><tspan xml:space="preserve" text-rendering="optimizeSpeed" font-size="13.88888888888889" font-weight="normal" font-style="normal" fill="#000000" opacity="1" x="14.291" text-anchor="start" y="13.542" textLength="36.47918701171875" style="font-family: Verdana, Geneva, sans-serif;">Login</tspan></text></g></g><g width="106.16" height="53.797" transform="scale(1,1) translate(380.253,89.768)"><g transform="scale(1,1) translate(0,0)" stroke="#7F7F7F" fill="#FFFFFF" fill-opacity="1" stroke-opacity="1"><path d="M26,0 L20.15,0.667 L17.781,1.333 L16,2 L14.53,2.667 L13.263,3.333 L12.144,4 L11.138,4.667 L10.224,5.333 L9.387,6 L8.615,6.667 L7.902,7.333 L7.238,8 L6.621,8.667 L6.044,9.333 L5.506,10 L5.003,10.667 L4.532,11.333 L4.091,12 L3.679,12.667 L3.294,13.333 L2.935,14 L2.6,14.667 L2.289,15.333 L2,16 L1.733,16.667 L1.487,17.333 L1.261,18 L1.056,18.667 L0.869,19.333 L0.702,20 L0.553,20.667 L0.422,21.333 L0.31,22 L0.215,22.667 L0.137,23.333 L0.077,24 L0.034,24.667 L0.009,25.333 L0,26 L0,27.797 L0.009,28.464 L0.034,29.131 L0.077,29.797 L0.137,30.464 L0.215,31.131 L0.31,31.797 L0.422,32.464 L0.553,33.131 L0.702,33.797 L0.869,34.464 L1.056,35.131 L1.261,35.797 L1.487,36.464 L1.733,37.131 L2,37.797 L2.289,38.464 L2.6,39.131 L2.935,39.797 L3.294,40.464 L3.679,41.131 L4.091,41.797 L4.532,42.464 L5.003,43.131 L5.506,43.797 L6.044,44.464 L6.621,45.131 L7.238,45.797 L7.902,46.464 L8.615,47.131 L9.387,47.797 L10.224,48.464 L11.138,49.131 L12.144,49.797 L13.263,50.464 L14.53,51.131 L16,51.797 L17.781,52.464 L20.15,53.131 L26,53.797 L80.16,53.797 L86.01,53.131 L88.379,52.464 L90.16,51.797 L91.63,51.131 L92.897,50.464 L94.016,49.797 L95.022,49.131 L95.936,48.464 L96.773,47.797 L97.545,47.131 L98.259,46.464 L98.922,45.797 L99.539,45.131 L100.116,44.464 L100.654,43.797 L101.157,43.131 L101.628,42.464 L102.069,41.797 L102.481,41.131 L102.866,40.464 L103.225,39.797 L103.56,39.131 L103.871,38.464 L104.16,37.797 L104.427,37.131 L104.673,36.464 L104.899,35.797 L105.104,35.131 L105.291,34.464 L105.458,33.797 L105.607,33.131 L105.738,32.464 L105.85,31.797 L105.945,31.131 L106.023,30.464 L106.083,29.797 L106.126,29.131 L106.151,28.464 L106.16,27.797 L106.16,26 L106.151,25.333 L106.126,24.667 L106.083,24 L106.023,23.333 L105.945,22.667 L105.85,22 L105.738,21.333 L105.607,20.667 L105.458,20 L105.291,19.333 L105.104,18.667 L104.899,18 L104.673,17.333 L104.427,16.667 L104.16,16 L103.871,15.333 L103.56,14.667 L103.225,14 L102.866,13.333 L102.481,12.667 L102.069,12 L101.628,11.333 L101.157,10.667 L100.654,10 L100.116,9.333 L99.539,8.667 L98.922,8 L98.259,7.333 L97.545,6.667 L96.773,6 L95.936,5.333 L95.022,4.667 L94.016,4 L92.897,3.333 L91.63,2.667 L90.16,2 L88.379,1.333 L86.01,0.667 L80.16,0 L26,0 z" stroke-width="1" stroke-dasharray="none"/></g><g width="70.35935920303469" height="33.33333206176758" transform="scale(1,1) translate(17.9,10.232)"><text width="70.35935920303469" height="33.33333206176758" transform="scale(1,1) translate(0,0)" xml:space="preserve"><tspan xml:space="preserve" text-rendering="optimizeSpeed" font-size="13.88888888888889" font-weight="normal" font-style="normal" fill="#000000" opacity="1" x="11.083" text-anchor="start" y="13.542" textLength="43.43337631225586" style="font-family: Verdana, Geneva, sans-serif;">Forgot</tspan><tspan xml:space="preserve" text-rendering="optimizeSpeed" font-size="13.88888888888889" font-weight="normal" font-style="normal" fill="#000000" opacity="1" x="3.386" text-anchor="start" y="30.208" textLength="63.58718490600586" style="font-family: Verdana, Geneva, sans-serif;">Password</tspan></text></g></g><g width="98.667" height="50" transform="scale(1,1) translate(384,183.333)"><g transform="scale(1,1) translate(0,0)" stroke="#7F7F7F" fill="#FFFFFF" fill-opacity="1" stroke-opacity="1"><path d="M25,0 L19.375,0.641 L17.097,1.282 L15.385,1.923 L13.971,2.564 L12.753,3.205 L11.677,3.846 L10.709,4.487 L9.831,5.128 L9.026,5.769 L8.284,6.41 L7.598,7.051 L6.96,7.692 L6.366,8.333 L5.812,8.974 L5.294,9.615 L4.81,10.256 L4.357,10.897 L3.934,11.538 L3.538,12.179 L3.167,12.821 L2.822,13.462 L2.5,14.103 L2.201,14.744 L1.923,15.385 L1.666,16.026 L1.43,16.667 L1.213,17.308 L1.015,17.949 L0.836,18.59 L0.675,19.231 L0.532,19.872 L0.406,20.513 L0.298,21.154 L0.206,21.795 L0.132,22.436 L0.074,23.077 L0.033,23.718 L0.008,24.359 L0,25 L0,25 L0.008,25.641 L0.033,26.282 L0.074,26.923 L0.132,27.564 L0.206,28.205 L0.298,28.846 L0.406,29.487 L0.532,30.128 L0.675,30.769 L0.836,31.41 L1.015,32.051 L1.213,32.692 L1.43,33.333 L1.666,33.974 L1.923,34.615 L2.201,35.256 L2.5,35.897 L2.822,36.538 L3.167,37.179 L3.538,37.821 L3.934,38.462 L4.357,39.103 L4.81,39.744 L5.294,40.385 L5.812,41.026 L6.366,41.667 L6.96,42.308 L7.598,42.949 L8.284,43.59 L9.026,44.231 L9.831,44.872 L10.709,45.513 L11.677,46.154 L12.753,46.795 L13.971,47.436 L15.385,48.077 L17.097,48.718 L19.375,49.359 L25,50 L73.667,50 L79.292,49.359 L81.57,48.718 L83.282,48.077 L84.695,47.436 L85.913,46.795 L86.99,46.154 L87.957,45.513 L88.836,44.872 L89.641,44.231 L90.383,43.59 L91.069,42.949 L91.707,42.308 L92.301,41.667 L92.855,41.026 L93.372,40.385 L93.856,39.744 L94.309,39.103 L94.733,38.462 L95.129,37.821 L95.499,37.179 L95.845,36.538 L96.167,35.897 L96.466,35.256 L96.744,34.615 L97,33.974 L97.237,33.333 L97.454,32.692 L97.652,32.051 L97.831,31.41 L97.992,30.769 L98.135,30.128 L98.261,29.487 L98.369,28.846 L98.46,28.205 L98.535,27.564 L98.593,26.923 L98.634,26.282 L98.658,25.641 L98.667,25 L98.667,25 L98.658,24.359 L98.634,23.718 L98.593,23.077 L98.535,22.436 L98.46,21.795 L98.369,21.154 L98.261,20.513 L98.135,19.872 L97.992,19.231 L97.831,18.59 L97.652,17.949 L97.454,17.308 L97.237,16.667 L97,16.026 L96.744,15.385 L96.466,14.744 L96.167,14.103 L95.845,13.462 L95.499,12.821 L95.129,12.179 L94.733,11.538 L94.309,10.897 L93.856,10.256 L93.372,9.615 L92.855,8.974 L92.301,8.333 L91.707,7.692 L91.069,7.051 L90.383,6.41 L89.641,5.769 L88.836,5.128 L87.957,4.487 L86.99,3.846 L85.913,3.205 L84.695,2.564 L83.282,1.923 L81.57,1.282 L79.292,0.641 L73.667,0 L25,0 z" stroke-width="1" stroke-dasharray="none"/></g><g width="65.06076237533333" height="30.648232317999998" transform="scale(1,1) translate(16.803,9.676)"><text width="65.06076237533333" height="16.66666603088379" transform="scale(1,1) translate(0,6.9907831435581045)" xml:space="preserve"><tspan xml:space="preserve" text-rendering="optimizeSpeed" font-size="13.88888888888889" font-weight="normal" font-style="normal" fill="#000000" opacity="1" x="5.255" text-anchor="start" y="13.542" textLength="54.55050277709961" style="font-family: Verdana, Geneva, sans-serif;">Register</tspan></text></g></g><g width="133.333" height="0" transform="scale(1,1) translate(484.75,16.667)"><g transform="scale(1,1) translate(0,0)" fill="#000000" stroke="#000000" stroke-opacity="1"><path d="M 6 0 L 133.333 0" fill="none" stroke-width="2" stroke-dasharray="none"/><g><g stroke-dasharray="none"><path d="M6,0.5A6,6 180 1 1 6,-0.5z" stroke-width="1" fill="none"/></g><g stroke-dasharray="none"><path d="M121.333,-6L133.333,0L121.333,6" stroke-width="1" fill="none"/></g></g></g></g><g width="47.25" height="216.667" transform="scale(1,1) translate(386.083,16.667)"><g transform="scale(1,1) translate(0,0)" fill="#909090" stroke="#909090" stroke-opacity="1"><path d="M47.25,216.667 L47.25,241.667 L-25,241.667 L-25,0 L0,0" fill="none" stroke-width="1.333" stroke-dasharray="none"/><g><g stroke-dasharray="none"><path d="M-10.666,-5.333L0,0L-10.666,5.333" stroke-width="0.6665" fill="none"/></g></g></g></g><g width="55.253" height="191.667" transform="scale(1,1) translate(486.413,116.667)"><g transform="scale(1,1) translate(0,0)" fill="#909090" stroke="#909090" stroke-opacity="1"><path d="M0,0 L55.253,0 L55.253,191.667" fill="none" stroke-width="1.333" stroke-dasharray="none"/><g><g stroke-dasharray="none"><path d="M60.586,181.001L55.253,191.667L49.92,181.001" stroke-width="0.6665" fill="none"/></g></g></g></g><g width="145.667" height="122" transform="scale(1,1) translate(485.5,309.833)"><g stroke="#6E6E6E" opacity="1" stroke-width="1" stroke-dasharray="none" width="145.667" height="122" transform="scale(1,1) translate(0,0)" fill="none" stroke-opacity="1"><rect width="145.667" height="122"/></g><g transform="scale(1,1) translate(0,0)" fill="#E8E8E8" opacity="0.01" stroke="#E8E8E8"><path d="M0.5,0.5 L146.167,0.5 L146.167,44.5 L0.5,44.5 z M0.5,44.5 L146.167,44.5 L146.167,66.5 L0.5,66.5 z M0.5,66.5 L146.167,66.5 L146.167,121.5 L0.5,121.5 z" stroke-width="0" stroke-dasharray="none"/></g><g width="141.66666666666666" height="39" transform="scale(1,1) translate(2.5,2.5)"><text width="141.66666666666666" height="33.33333206176758" transform="scale(1,1) translate(0,2.833333969116211)" xml:space="preserve"><tspan xml:space="preserve" text-rendering="optimizeSpeed" font-size="13.88888888888889" font-weight="normal" font-style="normal" fill="#000000" opacity="1" x="22.318" text-anchor="start" y="13.542" textLength="97.03014373779297" style="font-family: Verdana, Geneva, sans-serif;">&lt;&lt;retrieve&gt;&gt;</tspan><tspan xml:space="preserve" text-rendering="optimizeSpeed" font-size="13.88888888888889" font-weight="normal" font-style="normal" fill="#000000" opacity="1" x="38.735" text-anchor="start" y="30.208" textLength="64.19728088378906" style="font-family: Verdana, Geneva, sans-serif;">password</tspan></text></g><g width="141.66666666666666" height="51" transform="scale(1,1) translate(2.5,68.5)"><text width="141.66666666666666" height="33.33333206176758" transform="scale(1,1) translate(0,0)" xml:space="preserve"><tspan xml:space="preserve" text-rendering="optimizeSpeed" font-size="13.88888888888889" font-weight="normal" font-style="normal" fill="#000000" opacity="1" x="0" text-anchor="start" y="13.542" textLength="136.529541015625" style="font-family: Verdana, Geneva, sans-serif;">operations()- Key in</tspan><tspan xml:space="preserve" text-rendering="optimizeSpeed" font-size="13.88888888888889" font-weight="normal" font-style="normal" fill="#000000" opacity="1" x="0" text-anchor="start" y="30.208" textLength="94.52717590332031" style="font-family: Verdana, Geneva, sans-serif;">email address</tspan></text></g><g transform="scale(1,1) translate(0,0)" fill="#6E6E6E" stroke="#6E6E6E" stroke-opacity="1"><path d="M0.5,44 L146.167,44" fill="none" stroke-width="1" stroke-dasharray="none"/><g><g stroke-dasharray="none"><path d="M-0.5,43L1.5,43L1.5,45L-0.5,45z" stroke-width="0" fill="none"/></g></g></g><g transform="scale(1,1) translate(0,0)" fill="#6E6E6E" stroke="#6E6E6E" stroke-opacity="1"><path d="M0.5,66 L146.167,66" fill="none" stroke-width="1" stroke-dasharray="none"/><g><g stroke-dasharray="none"><path d="M-0.5,65L1.5,65L1.5,67L-0.5,67z" stroke-width="0" fill="none"/></g></g></g><g stroke="white" fill="none" stroke-opacity="0" stroke-width="3" stroke-dasharray="none" width="3" height="121" transform="scale(1,1) translate(3.5,0.5)"><rect width="3" height="121"/></g><g stroke="white" fill="none" stroke-opacity="0" stroke-width="3" stroke-dasharray="none" width="144.667" height="3" transform="scale(1,1) translate(0.5,3.5)"><rect width="144.667" height="3"/></g></g><g width="108.333" height="75" transform="scale(1,1) translate(781.25,170.833)"><g transform="scale(1,1) translate(0,0)" stroke="#7F7F7F" fill="#FFFFFF" fill-opacity="1" stroke-opacity="1"><path d="M37,0 L28.675,0.949 L25.303,1.897 L22.769,2.846 L20.678,3.795 L18.875,4.744 L17.281,5.692 L15.85,6.641 L14.549,7.59 L13.358,8.538 L12.26,9.487 L11.244,10.436 L10.301,11.385 L9.422,12.333 L8.602,13.282 L7.836,14.231 L7.119,15.179 L6.449,16.128 L5.822,17.077 L5.236,18.026 L4.688,18.974 L4.177,19.923 L3.7,20.872 L3.257,21.821 L2.846,22.769 L2.466,23.718 L2.116,24.667 L1.795,25.615 L1.502,26.564 L1.237,27.513 L0.999,28.462 L0.787,29.41 L0.601,30.359 L0.44,31.308 L0.305,32.256 L0.195,33.205 L0.11,34.154 L0.049,35.103 L0.012,36.051 L0,37 L0,38 L0.012,38.949 L0.049,39.897 L0.11,40.846 L0.195,41.795 L0.305,42.744 L0.44,43.692 L0.601,44.641 L0.787,45.59 L0.999,46.538 L1.237,47.487 L1.502,48.436 L1.795,49.385 L2.116,50.333 L2.466,51.282 L2.846,52.231 L3.257,53.179 L3.7,54.128 L4.177,55.077 L4.688,56.026 L5.236,56.974 L5.822,57.923 L6.449,58.872 L7.119,59.821 L7.836,60.769 L8.602,61.718 L9.422,62.667 L10.301,63.615 L11.244,64.564 L12.26,65.513 L13.358,66.462 L14.549,67.41 L15.85,68.359 L17.281,69.308 L18.875,70.256 L20.678,71.205 L22.769,72.154 L25.303,73.103 L28.675,74.051 L37,75 L71.333,75 L79.658,74.051 L83.03,73.103 L85.564,72.154 L87.656,71.205 L89.459,70.256 L91.052,69.308 L92.484,68.359 L93.784,67.41 L94.975,66.462 L96.073,65.513 L97.089,64.564 L98.033,63.615 L98.912,62.667 L99.732,61.718 L100.498,60.769 L101.214,59.821 L101.884,58.872 L102.511,57.923 L103.098,56.974 L103.646,56.026 L104.157,55.077 L104.633,54.128 L105.076,53.179 L105.487,52.231 L105.867,51.282 L106.217,50.333 L106.538,49.385 L106.831,48.436 L107.096,47.487 L107.335,46.538 L107.547,45.59 L107.732,44.641 L107.893,43.692 L108.028,42.744 L108.138,41.795 L108.224,40.846 L108.285,39.897 L108.321,38.949 L108.333,38 L108.333,37 L108.321,36.051 L108.285,35.103 L108.224,34.154 L108.138,33.205 L108.028,32.256 L107.893,31.308 L107.732,30.359 L107.547,29.41 L107.335,28.462 L107.096,27.513 L106.831,26.564 L106.538,25.615 L106.217,24.667 L105.867,23.718 L105.487,22.769 L105.076,21.821 L104.633,20.872 L104.157,19.923 L103.646,18.974 L103.098,18.026 L102.511,17.077 L101.884,16.128 L101.214,15.179 L100.498,14.231 L99.732,13.282 L98.912,12.333 L98.033,11.385 L97.089,10.436 L96.073,9.487 L94.975,8.538 L93.784,7.59 L92.484,6.641 L91.052,5.692 L89.459,4.744 L87.656,3.795 L85.564,2.846 L83.03,1.897 L79.658,0.949 L71.333,0 L37,0 z" stroke-width="1" stroke-dasharray="none"/></g><g width="71.89612793466661" height="48.325901924195804" transform="scale(1,1) translate(18.219,13.337)"><text width="71.89612793466661" height="16.66666603088379" transform="scale(1,1) translate(0,15.829617946656008)" xml:space="preserve"><tspan xml:space="preserve" text-rendering="optimizeSpeed" font-size="13.88888888888889" font-weight="normal" font-style="normal" fill="#000000" opacity="1" x="12.789" text-anchor="start" y="13.542" textLength="46.318050384521484" style="font-family: Verdana, Geneva, sans-serif;">Logout</tspan></text></g></g><g width="69.792" height="142.708" transform="scale(1,1) translate(763.542,57.292)"><g transform="scale(1,1) translate(0,0)" fill="#909090" stroke="#909090" stroke-opacity="1"><path d="M0,0 L69.792,0 L69.792,142.708" fill="none" stroke-width="1.333" stroke-dasharray="none"/><g><g stroke-dasharray="none"><path d="M75.125,132.042L69.792,142.708L64.459,132.042" stroke-width="0.6665" fill="none"/></g></g></g></g><g width="345.833" height="166.667" transform="scale(1,1) translate(435.417,41.667)"><g transform="scale(1,1) translate(0,0)" fill="#909090" stroke="#909090" stroke-opacity="1"><path d="M345.833,166.667 L0,166.667 L0,0" fill="none" stroke-width="1.333" stroke-dasharray="none"/><g><g stroke-dasharray="none"><path d="M-5.333,10.666L0,0L5.333,10.666" stroke-width="0.6665" fill="none"/></g></g></g></g><g width="81.833" height="54" transform="scale(1,1) translate(867.417,6.333)"><g width="81.833" height="54"><g transform="scale(0.5566893605840557,0.49999995290497556) translate(0,0)"><g><g width="147" height="108" transform="scale(1,1) translate(0,0)"><g width="147" height="108" transform="scale(1,1) translate(0,0)"><g width="56.833" height="20.333" transform="scale(1,1) translate(0.5,0.5)"><g stroke="#7F7F7F" opacity="1" stroke-width="1" stroke-dasharray="none" width="56.833" height="20.333" transform="scale(1,1) translate(0,0)" fill="#FFFFFF" fill-opacity="1" stroke-opacity="1"><rect width="56.833" height="20.333"/></g></g><g width="146" height="90.5" transform="scale(1,1) translate(0.5,17)"><g stroke="#7F7F7F" opacity="1" stroke-width="1" stroke-dasharray="none" width="146" height="90.5" transform="scale(1,1) translate(0,0)" fill="#FFFFFF" fill-opacity="1" stroke-opacity="1"><rect width="146" height="90.5"/></g></g></g></g></g></g></g><g width="74.04063874329998" height="39.30303262612024" transform="scale(1,1) translate(3.216,10.623)"><text width="74.04063874329998" height="16.66666603088379" transform="scale(1,1) translate(0,11.318183297618226)" xml:space="preserve"><tspan xml:space="preserve" text-rendering="optimizeSpeed" font-size="13.88888888888889" font-weight="normal" font-style="normal" fill="#000000" opacity="1" x="31.162" text-anchor="start" y="13.542" textLength="11.716714859008789" style="font-family: Verdana, Geneva, sans-serif;">js</tspan></text></g></g><g width="81.833" height="54" transform="scale(1,1) translate(875.75,106.333)"><g width="81.833" height="54"><g transform="scale(0.5566893616653186,0.49999996173529265) translate(0,0)"><g><g width="147" height="108" transform="scale(1,1) translate(0,0)"><g width="147" height="108" transform="scale(1,1) translate(0,0)"><g width="56.833" height="20.333" transform="scale(1,1) translate(0.5,0.5)"><g stroke="#7F7F7F" opacity="1" stroke-width="1" stroke-dasharray="none" width="56.833" height="20.333" transform="scale(1,1) translate(0,0)" fill="#FFFFFF" fill-opacity="1" stroke-opacity="1"><rect width="56.833" height="20.333"/></g></g><g width="146" height="90.5" transform="scale(1,1) translate(0.5,17)"><g stroke="#7F7F7F" opacity="1" stroke-width="1" stroke-dasharray="none" width="146" height="90.5" transform="scale(1,1) translate(0,0)" fill="#FFFFFF" fill-opacity="1" stroke-opacity="1"><rect width="146" height="90.5"/></g></g></g></g></g></g></g><g width="74.04063888888888" height="39.30303333333333" transform="scale(1,1) translate(3.216,10.623)"><text width="74.04063888888888" height="16.66666603088379" transform="scale(1,1) translate(0,11.318183651224771)" xml:space="preserve"><tspan xml:space="preserve" text-rendering="optimizeSpeed" font-size="13.88888888888889" font-weight="normal" font-style="normal" fill="#000000" opacity="1" x="12.731" text-anchor="start" y="13.542" textLength="48.579402923583984" style="font-family: Verdana, Geneva, sans-serif;">images</tspan></text></g></g><g width="81.833" height="54" transform="scale(1,1) translate(867.417,56.333)"><g width="81.833" height="54"><g transform="scale(0.5566893616653186,0.49999996173529265) translate(0,0)"><g><g width="147" height="108" transform="scale(1,1) translate(0,0)"><g width="147" height="108" transform="scale(1,1) translate(0,0)"><g width="56.833" height="20.333" transform="scale(1,1) translate(0.5,0.5)"><g stroke="#7F7F7F" opacity="1" stroke-width="1" stroke-dasharray="none" width="56.833" height="20.333" transform="scale(1,1) translate(0,0)" fill="#FFFFFF" fill-opacity="1" stroke-opacity="1"><rect width="56.833" height="20.333"/></g></g><g width="146" height="90.5" transform="scale(1,1) translate(0.5,17)"><g stroke="#7F7F7F" opacity="1" stroke-width="1" stroke-dasharray="none" width="146" height="90.5" transform="scale(1,1) translate(0,0)" fill="#FFFFFF" fill-opacity="1" stroke-opacity="1"><rect width="146" height="90.5"/></g></g></g></g></g></g></g><g width="74.04063888888888" height="39.30303333333333" transform="scale(1,1) translate(3.216,10.623)"><text width="74.04063888888888" height="16.66666603088379" transform="scale(1,1) translate(0,11.318183651224771)" xml:space="preserve"><tspan xml:space="preserve" text-rendering="optimizeSpeed" font-size="13.88888888888889" font-weight="normal" font-style="normal" fill="#000000" opacity="1" x="26.438" text-anchor="start" y="13.542" textLength="21.16546630859375" style="font-family: Verdana, Geneva, sans-serif;">css</tspan></text></g></g><g width="161.667" height="29" transform="scale(1,1) translate(769.167,10.5)"><g width="161.667" height="29"><g transform="scale(0.9999979550118333,1.0000001315413023) translate(0,0)"><g><g width="161.667" height="29" transform="scale(1,1) translate(0,0)"><g width="161.667" height="29" transform="scale(1,1) translate(0,0)"><g width="29" height="29" transform="scale(1,1) translate(0,0)"><g transform="rotate(270,14.5,14.5) scale(1,1) translate(0,0)" stroke="#000000" fill="#000000" fill-opacity="1" stroke-opacity="1"><path d="M14.5,0 L29,29 L0,29 L14.5,0 z" stroke-width="0" stroke-dasharray="none"/></g></g><g width="130.5" height="19.5" transform="scale(1,1) translate(31.167,4.667)"><g stroke="#000000" opacity="1" stroke-width="0" stroke-dasharray="none" width="130.5" height="19.5" transform="scale(1,1) translate(0,0)" fill="none" stroke-opacity="1"><rect width="130.5" height="19.5"/></g></g></g></g></g></g></g><g width="124.21675555555555" height="16.66666603088379" transform="scale(1,1) translate(31.552,5.37)"><text width="124.21675555555555" height="16.66666603088379" transform="scale(1,1) translate(0,0)" xml:space="preserve"><tspan xml:space="preserve" text-rendering="optimizeSpeed" font-size="13.88888888888889" font-weight="normal" font-style="normal" fill="#000000" opacity="1" x="0" text-anchor="start" y="13.542" textLength="59.69767761230469" style="font-family: Verdana, Geneva, sans-serif;">Attribute</tspan></text></g></g><g width="161.667" height="29" transform="scale(1,1) translate(777.5,77.167)"><g width="161.667" height="29"><g transform="scale(0.9999979550118333,1.0000001315413023) translate(0,0)"><g><g width="161.667" height="29" transform="scale(1,1) translate(0,0)"><g width="161.667" height="29" transform="scale(1,1) translate(0,0)"><g width="29" height="29" transform="scale(1,1) translate(0,0)"><g transform="rotate(270,14.5,14.5) scale(1,1) translate(0,0)" stroke="#000000" fill="#000000" fill-opacity="1" stroke-opacity="1"><path d="M14.5,0 L29,29 L0,29 L14.5,0 z" stroke-width="0" stroke-dasharray="none"/></g></g><g width="130.5" height="19.5" transform="scale(1,1) translate(31.167,4.667)"><g stroke="#000000" opacity="1" stroke-width="0" stroke-dasharray="none" width="130.5" height="19.5" transform="scale(1,1) translate(0,0)" fill="none" stroke-opacity="1"><rect width="130.5" height="19.5"/></g></g></g></g></g></g></g><g width="124.21675555555555" height="16.66666603088379" transform="scale(1,1) translate(31.552,5.37)"><text width="124.21675555555555" height="16.66666603088379" transform="scale(1,1) translate(0,0)" xml:space="preserve"><tspan xml:space="preserve" text-rendering="optimizeSpeed" font-size="13.88888888888889" font-weight="normal" font-style="normal" fill="#000000" opacity="1" x="0" text-anchor="start" y="13.542" textLength="59.69767761230469" style="font-family: Verdana, Geneva, sans-serif;">Attribute</tspan></text></g></g><g width="161.667" height="29" transform="scale(1,1) translate(777.5,135.5)"><g width="161.667" height="29"><g transform="scale(0.9999979550118333,1.0000001315413023) translate(0,0)"><g><g width="161.667" height="29" transform="scale(1,1) translate(0,0)"><g width="161.667" height="29" transform="scale(1,1) translate(0,0)"><g width="29" height="29" transform="scale(1,1) translate(0,0)"><g transform="rotate(270,14.5,14.5) scale(1,1) translate(0,0)" stroke="#000000" fill="#000000" fill-opacity="1" stroke-opacity="1"><path d="M14.5,0 L29,29 L0,29 L14.5,0 z" stroke-width="0" stroke-dasharray="none"/></g></g><g width="130.5" height="19.5" transform="scale(1,1) translate(31.167,4.667)"><g stroke="#000000" opacity="1" stroke-width="0" stroke-dasharray="none" width="130.5" height="19.5" transform="scale(1,1) translate(0,0)" fill="none" stroke-opacity="1"><rect width="130.5" height="19.5"/></g></g></g></g></g></g></g><g width="124.21675555555555" height="16.66666603088379" transform="scale(1,1) translate(31.552,5.37)"><text width="124.21675555555555" height="16.66666603088379" transform="scale(1,1) translate(0,0)" xml:space="preserve"><tspan xml:space="preserve" text-rendering="optimizeSpeed" font-size="13.88888888888889" font-weight="normal" font-style="normal" fill="#000000" opacity="1" x="0" text-anchor="start" y="13.542" textLength="59.69767761230469" style="font-family: Verdana, Geneva, sans-serif;">Attribute</tspan></text></g></g><g width="138.882" height="36.833" transform="rotate(90,939.653,108.524) scale(1,1) translate(870.212,90.107)"><g width="138.882" height="36.833"><g transform="scale(2.3472812842407387,0.9735766504843405) translate(0,0)"><g><g width="0" height="17.833" transform="scale(1,1) translate(56.667,18.5)"><g transform="scale(1,1) translate(0,0)" fill="#000000" stroke="#000000" stroke-opacity="1"><path d="M0,0 L0,17.833" fill="none" stroke-width="1" stroke-dasharray="none"/><g><g stroke-dasharray="none"><path d="M-1,-1L1,-1L1,1L-1,1z" stroke-width="0" fill="none"/></g></g></g></g><g width="55.833" height="0" transform="scale(1,1) translate(0.5,19)"><g transform="scale(1,1) translate(0,0)" fill="#000000" stroke="#000000" stroke-opacity="1"><path d="M0,0 L55.833,0" fill="none" stroke-width="1" stroke-dasharray="none"/><g><g stroke-dasharray="none"><path d="M-1,-1L1,-1L1,1L-1,1z" stroke-width="0" fill="none"/></g></g></g></g><g width="0" height="17.833" transform="scale(1,1) translate(0.833,18.5)"><g transform="scale(1,1) translate(0,0)" fill="#000000" stroke="#000000" stroke-opacity="1"><path d="M0,0 L0,17.833" fill="none" stroke-width="1" stroke-dasharray="none"/><g><g stroke-dasharray="none"><path d="M-1,-1L1,-1L1,1L-1,1z" stroke-width="0" fill="none"/></g></g></g></g><g width="0" height="35.833" transform="scale(1,1) translate(28.5,0.5)"><g transform="scale(1,1) translate(0,0)" fill="#000000" stroke="#000000" stroke-opacity="1"><path d="M0,0 L0,35.833" fill="none" stroke-width="1" stroke-dasharray="none"/><g><g stroke-dasharray="none"><path d="M-1,-1L1,-1L1,1L-1,1z" stroke-width="0" fill="none"/></g></g></g></g></g></g></g></g><g width="649.473" height="83.714" transform="scale(1,1) translate(308.597,24.81)"><g transform="scale(1,1) translate(0,0)" fill="#909090" stroke="#909090" stroke-opacity="1"><path d="M649.473,83.714 L674.473,83.714 L674.473,-16.413 L0,-16.413 L0,0" fill="none" stroke-width="1.333" stroke-dasharray="none"/><g><g stroke-dasharray="none"><path d="M5.333,-10.666L0,0L-5.333,-10.666" stroke-width="0.6665" fill="none"/></g></g></g></g></g></svg>